<?xml version="1.0" encoding="utf-8"?>
<!-- Generator: Adobe Illustrator 16.0.0, SVG Export Plug-In . SVG Version: 6.00 Build 0)  -->
<!DOCTYPE svg PUBLIC "-//W3C//DTD SVG 1.1//EN" "http://www.w3.org/Graphics/SVG/1.1/DTD/svg11.dtd">
<svg version="1.1" id="Capa_1" xmlns="http://www.w3.org/2000/svg" xmlns:xlink="http://www.w3.org/1999/xlink" x="0px" y="0px"
	 width="33px" height="32.25px" viewBox="936.25 196.75 33 32.25" enable-background="new 936.25 196.75 33 32.25"
	 xml:space="preserve">
<path fill="#4CAF50" d="M952.512,199.092h-0.006l0,0c-7.68,0-13.924,6.246-13.924,13.926c0,3.047,0.98,5.871,2.65,8.164
	l-1.734,5.174l5.352-1.711c2.203,1.459,4.83,2.301,7.662,2.301c7.68,0,13.924-6.248,13.924-13.928
	C966.436,205.34,960.191,199.092,952.512,199.092z"/>
<path fill="#FAFAFA" d="M960.615,218.758c-0.336,0.949-1.668,1.736-2.732,1.967c-0.729,0.154-1.678,0.277-4.879-1.049
	c-4.092-1.695-6.729-5.855-6.934-6.125c-0.195-0.27-1.654-2.201-1.654-4.201c0-1.998,1.016-2.971,1.426-3.389
	c0.336-0.344,0.891-0.5,1.424-0.5c0.172,0,0.326,0.01,0.467,0.016c0.408,0.018,0.613,0.043,0.883,0.688
	c0.336,0.811,1.154,2.809,1.252,3.014c0.1,0.205,0.199,0.484,0.061,0.754c-0.131,0.279-0.246,0.402-0.451,0.639
	s-0.4,0.418-0.605,0.672c-0.189,0.221-0.4,0.459-0.164,0.867c0.236,0.4,1.055,1.736,2.26,2.809c1.555,1.385,2.814,1.826,3.266,2.014
	c0.336,0.141,0.736,0.107,0.982-0.154c0.311-0.336,0.695-0.893,1.088-1.441c0.277-0.395,0.629-0.443,0.998-0.303
	c0.377,0.131,2.367,1.113,2.775,1.316c0.41,0.207,0.68,0.305,0.779,0.477C960.951,216.998,960.951,217.809,960.615,218.758z"/>
</svg>
